{"title":"The Big Bang Theory S01E01-E17","uid":7636658,"size":40168246991,"categoryP":"video","categoryS":"hd___tv_shows","magnet":"?xt=urn:btih:d4f4115b39ac805e1b90a8ae31ff4c125859d884&amp;dn=The+Big+Bang+Theory+S01E01-E17&amp;tr=udp%3A%2F%2Ftracker.openbittorrent.com%3A80&amp;tr=udp%3A%2F%2Fopen.demonii.com%3A1337&amp;tr=udp%3A%2F%2Ftracker.coppersurfer.tk%3A6969&amp;tr=udp%3A%2F%2Fexodus.desync.com%3A6969","seeders":0,"leechers":0,"uploader":"ElBarbaz","files":-1,"time":1347663613,"description":"General\nComplete name                    : The Big Bang Theory S01E01-E17\nFormat                           : MPEG-4\nFormat profile                   : Base Media\nCodec ID                         : isom\nOverall bit rate                 : 15.1 Mbps\nWriting application              : Lavf53.18.0\n\nVideo\nID                               : 1\nFormat                           : AVC\nFormat/Info                      : Advanced Video Codec\nFormat profile                   : &lt;a class=&quot;__cf_email__&quot; href=&quot;/cdn-cgi/l/email-protection&quot; data-cfemail=&quot;662e0f010e262a524854&quot;&gt;[email&amp;#160;protected]&lt;/a&gt;&lt;script cf-hash='f9e31' type=&quot;text/javascript&quot;&gt;\n/* &lt;![CDATA[ */!function(){try{var t=&quot;currentScript&quot;in document?document.currentScript:function(){for(var t=document.getElementsByTagName(&quot;script&quot;),e=t.length;e--;)if(t[e].getAttribute(&quot;cf-hash&quot;))return t[e]}();if(t&amp;&amp;t.previousSibling){var e,r,n,i,c=t.previousSibling,a=c.getAttribute(&quot;data-cfemail&quot;);if(a){for(e=&quot;&quot;,r=parseInt(a.substr(0,2),16),n=2;a.length-n;n+=2)i=parseInt(a.substr(n,2),16)^r,e+=String.fromCharCode(i);e=document.createTextNode(e),c.parentNode.replaceChild(e,c)}}}catch(u){}}();/* ]]&gt; */&lt;/script&gt;\nFormat settings, CABAC           : Yes\nFormat settings, ReFrames        : 4 frames\nCodec ID                         : avc1\nCodec ID/Info                    : Advanced Video Coding\nDuration                         : 22mn 55s\nBit rate mode                    : Variable\nBit rate                         : 15.0 Mbps\nWidth                            : 1 920 pixels\nHeight                           : 1 080 pixels\nDisplay aspect ratio             : 16:9\nFrame rate mode                  : Constant\nFrame rate                       : 60.000 fps\nColor space                      : YUV\nChroma subsampling               : 4:2:0\nBit depth                        : 8 bits\nScan type                        : Progressive\nBits/(Pixel*Frame)               : 0.121\nStream size                      : 2.36 GiB (98%)\nWriting library                  : x264 core 119\n\n\nAudio\nID                               : 2\nFormat                           : AC-3\nFormat/Info                      : Audio Coding 3\nMode extension                   : CM (complete main)\nCodec ID                         : ac-3\nBit rate mode                    : Constant\nBit rate                         : 320 Kbps\nChannel(s)                       : 6 channels\nChannel positions                : Front: L C R, Side: L R, LFE\nSampling rate                    : 48.0 KHz\nBit depth                        : 16 bits\nCompression mode                 : Lossy\nStream size                      : 52.5 MiB (2%)\n\n","torrent":{"xt":"urn:btih:d4f4115b39ac805e1b90a8ae31ff4c125859d884","amp;dn":"The+Big+Bang+Theory+S01E01-E17","amp;tr":["udp%3A%2F%2Ftracker.openbittorrent.com%3A80","udp%3A%2F%2Fopen.demonii.com%3A1337","udp%3A%2F%2Ftracker.coppersurfer.tk%3A6969","udp%3A%2F%2Fexodus.desync.com%3A6969"],"infoHash":"d4f4115b39ac805e1b90a8ae31ff4c125859d884","infoHashBuffer":{"type":"Buffer","data":[212,244,17,91,57,172,128,94,27,144,168,174,49,255,76,18,88,89,216,132]},"announce":[],"urlList":[]}}